<svg width="48" height="48" viewBox="0 0 48 48" fill="none" xmlns="http://www.w3.org/2000/svg">
<g filter="url(#filter0_d_1_43265)">
<path fill-rule="evenodd" clip-rule="evenodd" d="M23.777 6.04341C23.9231 5.98553 24.0805 5.98553 24.2266 6.04341L26.1726 6.81414C26.556 6.966 26.7661 7.46927 26.642 7.93823C26.5178 8.40719 26.1063 8.66424 25.7229 8.51239L24.0018 7.8307L22.2807 8.51239C21.8972 8.66424 21.4858 8.40719 21.3616 7.93823C21.2375 7.46927 21.4476 6.966 21.831 6.81414L23.777 6.04341ZM18.8582 8.92975C18.9824 9.39871 18.7722 9.90198 18.3888 10.0538L18.1706 10.1402L18.3411 10.1924C18.7321 10.3119 18.9698 10.7965 18.8721 11.2747C18.7743 11.7529 18.3781 12.0437 17.9871 11.9241L16.9477 11.6063V15.2824C16.9477 15.7754 16.621 16.175 16.218 16.175C15.815 16.175 15.4883 15.7754 15.4883 15.2824V10.4644C15.4883 10.4641 15.4883 10.4637 15.4883 10.4634V9.97545C15.4883 9.58845 15.6922 9.24555 15.9932 9.12632L17.9391 8.3556C18.3226 8.20374 18.734 8.46079 18.8582 8.92975ZM29.1454 8.92975C29.2696 8.46079 29.681 8.20374 30.0644 8.3556L32.0104 9.12632C32.3114 9.24555 32.5153 9.58845 32.5153 9.97545V10.4365C32.5158 10.4548 32.5158 10.4731 32.5153 10.4913V15.2824C32.5153 15.7754 32.1886 16.175 31.7856 16.175C31.3826 16.175 31.0558 15.7754 31.0558 15.2824V11.6064L30.0168 11.9241C29.6258 12.0437 29.2296 11.7529 29.1319 11.2747C29.0341 10.7965 29.2718 10.3119 29.6628 10.1924L29.8331 10.1403L29.6148 10.0538C29.2314 9.90198 29.0212 9.39871 29.1454 8.92975ZM16.218 25.0039C16.621 25.0039 16.9477 25.4035 16.9477 25.8964V29.0239L23.3967 27.8104C23.5282 27.5756 23.749 27.4215 23.9993 27.4215C24.2496 27.4215 24.4705 27.5756 24.6019 27.8106L31.0558 29.025V25.8964C31.0558 25.4035 31.3826 25.0039 31.7856 25.0039C32.1886 25.0039 32.5153 25.4035 32.5153 25.8964V29.2996L36.8693 30.1189C36.9484 30.1338 37.0251 30.1563 37.0991 30.1857L37.3651 30.1276C37.9076 30.0091 38.4585 30.2745 38.7892 30.8138L41.7081 35.574C42.0124 36.0702 42.0843 36.7241 41.8979 37.301C41.7115 37.8779 41.2936 38.2951 40.7942 38.4029L24.2536 41.9731C24.0859 42.0093 23.9142 42.0093 23.7464 41.9731L7.20584 38.4029C6.70639 38.2951 6.28851 37.8779 6.10214 37.301C5.91576 36.7241 5.98761 36.0702 6.2919 35.574L9.21082 30.8138C9.54151 30.2745 10.0924 30.0091 10.635 30.1276L10.8992 30.1853C10.973 30.1561 11.0494 30.1337 11.1282 30.1189L15.4883 29.2985V25.8964C15.4883 25.4035 15.815 25.0039 16.218 25.0039ZM15.284 31.143L15.4883 31.1046V31.1876L15.284 31.143ZM18.88 31.843C18.8755 31.8708 18.87 31.8981 18.8636 31.9248L21.3353 32.4647C21.3367 32.4544 21.3382 32.4442 21.3398 32.434C21.4175 31.9503 21.801 31.6352 22.1965 31.7302L23.2695 31.988V29.6404L17.7898 30.6715L18.3046 30.7952C18.7001 30.8902 18.9577 31.3593 18.88 31.843ZM29.1398 31.9241L26.6682 32.4639C26.6669 32.4539 26.6654 32.444 26.6638 32.434C26.5861 31.9503 26.2026 31.6352 25.8071 31.7302L24.729 31.9892V29.6406L30.2111 30.6721L29.699 30.7952C29.3035 30.8902 29.0459 31.3593 29.1236 31.843C29.128 31.8706 29.1334 31.8976 29.1398 31.9241ZM32.5153 31.1868V31.1057L32.7148 31.1432L32.5153 31.1868ZM23.3748 13.5715L21.879 13.1142C21.4881 12.9946 21.2503 12.51 21.3481 12.0318C21.4458 11.5536 21.842 11.2629 22.233 11.3824L24.002 11.9233L25.7709 11.3824C26.1619 11.2629 26.5581 11.5536 26.6559 12.0318C26.7536 12.51 26.5159 12.9946 26.1249 13.1142L24.6245 13.573C24.6908 13.7074 24.729 13.865 24.729 14.0335V18.7937C24.729 19.2866 24.4023 19.6862 23.9993 19.6862C23.5962 19.6862 23.2695 19.2866 23.2695 18.7937V14.0335C23.2695 13.8644 23.308 13.7063 23.3748 13.5715ZM11.1282 33.6475C10.5975 33.5477 10.1704 33.106 9.98727 32.5227L7.45947 36.645L24 40.2152L40.5406 36.645L38.0111 32.5199C37.8284 33.1046 37.4008 33.5475 36.8693 33.6475L24.2207 36.0276C24.0736 36.0553 23.9239 36.0553 23.7768 36.0276L11.1282 33.6475Z" fill="#CB35FF"/>
</g>
<defs>
<filter id="filter0_d_1_43265" x="-4" y="-4" width="56" height="56" filterUnits="userSpaceOnUse" color-interpolation-filters="sRGB">
<feFlood flood-opacity="0" result="BackgroundImageFix"/>
<feColorMatrix in="SourceAlpha" type="matrix" values="0 0 0 0 0 0 0 0 0 0 0 0 0 0 0 0 0 0 127 0" result="hardAlpha"/>
<feOffset/>
<feGaussianBlur stdDeviation="2"/>
<feComposite in2="hardAlpha" operator="out"/>
<feColorMatrix type="matrix" values="0 0 0 0 0 0 0 0 0 0 0 0 0 0 0 0 0 0 0.25 0"/>
<feBlend mode="normal" in2="BackgroundImageFix" result="effect1_dropShadow_1_43265"/>
<feBlend mode="normal" in="SourceGraphic" in2="effect1_dropShadow_1_43265" result="shape"/>
</filter>
</defs>
</svg>
