<svg width="48" height="48" viewBox="0 0 48 48" fill="none" xmlns="http://www.w3.org/2000/svg">
<g filter="url(#filter0_d_1_40825)">
<path fill-rule="evenodd" clip-rule="evenodd" d="M41.7742 24C41.7742 33.8164 33.8164 41.7742 24 41.7742C14.1836 41.7742 6.22581 33.8164 6.22581 24C6.22581 14.1836 14.1836 6.22581 24 6.22581C33.8164 6.22581 41.7742 14.1836 41.7742 24ZM24 36.871C31.1084 36.871 36.871 31.1084 36.871 24C36.871 16.8916 31.1084 11.129 24 11.129C16.8916 11.129 11.129 16.8916 11.129 24C11.129 31.1084 16.8916 36.871 24 36.871ZM24.6129 6.22581H23.3871V11.129H24.6129V6.22581ZM22.1613 5V12.3548H25.8387V5H22.1613ZM24.6129 36.871H23.3871V41.7742H24.6129V36.871ZM22.1613 35.6452V43H25.8387V35.6452H22.1613ZM41.7742 24.6129V23.3871H36.871V24.6129H41.7742ZM43 22.1613H35.6452V25.8387H43V22.1613ZM11.129 24.6129V23.3871H6.22581V24.6129H11.129ZM12.3548 22.1613H5L5 25.8387H12.3548V22.1613ZM11.8667 10.9973L10.9999 11.864L14.467 15.3311L15.3338 14.4644L11.8667 10.9973ZM9.26638 11.864L14.467 17.0647L17.0674 14.4644L11.8667 9.26371L9.26638 11.864ZM33.5338 32.6667L32.667 33.5335L36.1341 37.0006L37.0009 36.1338L33.5338 32.6667ZM30.9335 33.5335L36.1341 38.7342L38.7345 36.1338L33.5338 30.9332L30.9335 33.5335ZM37.0003 11.8643L36.1336 10.9975L32.6665 14.4646L33.5332 15.3314L37.0003 11.8643ZM36.1336 9.26399L30.9329 14.4646L33.5332 17.065L38.7339 11.8643L36.1336 9.26399ZM15.3333 33.5338L14.4665 32.667L10.9994 36.1341L11.8662 37.0009L15.3333 33.5338ZM14.4665 30.9335L9.26583 36.1341L11.8662 38.7345L17.0668 33.5338L14.4665 30.9335Z" fill="#00FFFF"/>
</g>
<defs>
<filter id="filter0_d_1_40825" x="-4" y="-4" width="56" height="56" filterUnits="userSpaceOnUse" color-interpolation-filters="sRGB">
<feFlood flood-opacity="0" result="BackgroundImageFix"/>
<feColorMatrix in="SourceAlpha" type="matrix" values="0 0 0 0 0 0 0 0 0 0 0 0 0 0 0 0 0 0 127 0" result="hardAlpha"/>
<feOffset/>
<feGaussianBlur stdDeviation="2"/>
<feComposite in2="hardAlpha" operator="out"/>
<feColorMatrix type="matrix" values="0 0 0 0 0 0 0 0 0 0 0 0 0 0 0 0 0 0 0.25 0"/>
<feBlend mode="normal" in2="BackgroundImageFix" result="effect1_dropShadow_1_40825"/>
<feBlend mode="normal" in="SourceGraphic" in2="effect1_dropShadow_1_40825" result="shape"/>
</filter>
</defs>
</svg>
