<svg width="48" height="48" viewBox="0 0 48 48" fill="none" xmlns="http://www.w3.org/2000/svg">
<g filter="url(#filter0_d_1_40810)">
<path fill-rule="evenodd" clip-rule="evenodd" d="M15.099 5H6.69414L5 6.69414V16.6495L16.7931 19.5978V6.69414L15.099 5ZM6.31034 7.2369L7.2369 6.31034H14.5562L15.4828 7.2369V17.9195L6.31034 15.6264V7.2369ZM28.2024 5H19.7976L18.1034 6.69414V16.6495L29.8966 19.5978V6.69414L28.2024 5ZM19.4138 7.2369L20.3403 6.31034H27.6597L28.5862 7.2369V17.9195L19.4138 15.6264V7.2369ZM32.901 5H41.3059L43 6.69414V19.5978L31.2069 16.6495V6.69414L32.901 5ZM33.4438 6.31034L32.5172 7.2369V15.6264L41.6897 17.9195V7.2369L40.7631 6.31034H33.4438ZM6.69414 43H15.099L16.7931 41.3059V31.3505L5 28.4023V41.3059L6.69414 43ZM15.4828 40.7631L14.5562 41.6897H7.2369L6.31034 40.7631V30.0805L15.4828 32.3736V40.7631ZM28.2024 43H19.7976L18.1034 41.3059V28.4023L29.8966 31.3505V41.3059L28.2024 43ZM27.6597 41.6897L28.5862 40.7631V32.3736L19.4138 30.0805V40.7631L20.3403 41.6897H27.6597ZM32.901 43H41.3059L43 41.3059V31.3505L31.2069 28.4023V41.3059L32.901 43ZM41.6897 40.7631L40.7631 41.6897H33.4438L32.5172 40.7631V30.0805L41.6897 32.3736V40.7631ZM5 17.9192L16.7931 20.8675V24.8388L5 21.8905V17.9192ZM6.31034 19.5974V20.8675L15.4828 23.1606V21.8905L6.31034 19.5974ZM29.8966 20.8675L18.1034 17.9192V21.8905L29.8966 24.8388V20.8675ZM19.4138 20.8675V19.5974L28.5862 21.8905V23.1606L19.4138 20.8675ZM31.2069 17.9192L43 20.8675V24.8388L31.2069 21.8905V17.9192ZM32.5172 19.5974V20.8675L41.6897 23.1606V21.8905L32.5172 19.5974ZM16.7931 26.1088L5 23.1606V27.1319L16.7931 30.0802V26.1088ZM6.31034 26.1088V24.8388L15.4828 27.1319V28.4019L6.31034 26.1088ZM18.1034 23.1606L29.8966 26.1088V30.0802L18.1034 27.1319V23.1606ZM19.4138 24.8388V26.1088L28.5862 28.4019V27.1319L19.4138 24.8388ZM43 26.1088L31.2069 23.1606V27.1319L43 30.0802V26.1088ZM32.5172 26.1088V24.8388L41.6897 27.1319V28.4019L32.5172 26.1088Z" fill="#00FFFF"/>
</g>
<defs>
<filter id="filter0_d_1_40810" x="-4" y="-4" width="56" height="56" filterUnits="userSpaceOnUse" color-interpolation-filters="sRGB">
<feFlood flood-opacity="0" result="BackgroundImageFix"/>
<feColorMatrix in="SourceAlpha" type="matrix" values="0 0 0 0 0 0 0 0 0 0 0 0 0 0 0 0 0 0 127 0" result="hardAlpha"/>
<feOffset/>
<feGaussianBlur stdDeviation="2"/>
<feComposite in2="hardAlpha" operator="out"/>
<feColorMatrix type="matrix" values="0 0 0 0 0 0 0 0 0 0 0 0 0 0 0 0 0 0 0.25 0"/>
<feBlend mode="normal" in2="BackgroundImageFix" result="effect1_dropShadow_1_40810"/>
<feBlend mode="normal" in="SourceGraphic" in2="effect1_dropShadow_1_40810" result="shape"/>
</filter>
</defs>
</svg>
